<?xml version="1.0" standalone="no"?>
<!DOCTYPE svg PUBLIC "-//W3C//DTD SVG 20010904//EN"
 "http://www.w3.org/TR/2001/REC-SVG-20010904/DTD/svg10.dtd">
<svg version="1.0" xmlns="http://www.w3.org/2000/svg"
 width="512.000000pt" height="512.000000pt" viewBox="0 0 512.000000 512.000000"
 preserveAspectRatio="xMidYMid meet">
<metadata>
Created by potrace 1.11, written by Peter Selinger 2001-2013
</metadata>
<g transform="translate(0.000000,512.000000) scale(0.100000,-0.100000)"
fill="#000000" stroke="none">
<path d="M325 5058 c11 -116 14 -143 20 -223 3 -44 8 -96 11 -115 3 -19 7 -64
9 -100 3 -36 10 -108 15 -160 5 -52 12 -126 15 -165 3 -38 7 -81 10 -95 2 -14
6 -65 10 -115 3 -49 8 -106 10 -125 2 -19 6 -64 10 -100 3 -36 7 -83 9 -105 2
-22 7 -76 11 -120 3 -44 8 -96 10 -115 2 -19 7 -66 10 -105 3 -38 7 -88 10
-110 2 -22 6 -67 9 -100 3 -33 8 -85 11 -115 2 -30 7 -86 10 -125 3 -38 8 -86
10 -105 2 -19 7 -64 10 -100 3 -36 8 -87 10 -115 2 -27 7 -79 10 -115 3 -36 8
-85 10 -110 6 -47 10 -94 20 -220 3 -41 8 -96 10 -122 3 -27 7 -69 10 -95 2
-27 7 -70 9 -98 8 -80 16 -165 21 -235 3 -36 8 -90 11 -120 9 -97 13 -133 19
-215 3 -44 8 -96 11 -115 3 -19 7 -62 9 -95 4 -57 20 -230 40 -435 3 -25 7
-72 9 -104 3 -32 9 -62 13 -66 4 -4 80 -26 168 -50 88 -23 171 -46 185 -50 14
-5 79 -23 145 -41 66 -17 149 -40 185 -50 57 -17 182 -51 440 -120 41 -11 116
-32 165 -45 237 -66 411 -113 473 -129 58 -16 40 -18 252 40 52 14 142 39 200
54 118 32 188 51 405 111 83 23 174 48 203 56 30 8 153 42 275 75 190 52 361
99 417 114 8 2 36 10 62 18 26 8 49 12 52 9 4 -3 7 3 7 14 5 73 12 146 24 254
2 19 7 71 10 115 10 127 15 187 20 225 2 19 7 69 10 110 3 41 8 91 10 110 2
19 7 69 11 110 3 41 7 93 10 115 2 22 6 72 9 110 4 39 8 84 9 100 2 17 6 68
10 115 4 47 9 96 11 110 2 14 7 61 10 105 4 44 8 96 10 115 2 19 6 69 10 110
3 41 8 91 10 110 3 19 7 64 10 100 17 210 24 296 30 340 3 19 7 69 10 110 3
41 8 91 10 110 2 19 6 71 10 115 3 44 8 96 10 115 3 19 7 64 10 100 3 36 8 85
10 110 6 60 14 154 30 340 4 41 8 86 10 100 2 14 7 63 10 110 3 47 8 96 10
110 2 14 6 59 10 100 3 41 8 95 10 120 4 47 13 144 20 220 2 25 7 72 10 105 3
33 7 83 10 110 2 28 7 79 10 115 3 36 8 89 10 118 l3 52 -2240 0 -2240 0 7
-62z"/>
</g>
</svg>
